<svg version="1.1" id="Layer_1" xmlns="http://www.w3.org/2000/svg" xmlns:xlink="http://www.w3.org/1999/xlink" x="0px" y="0px"
	 width="100%" viewBox="0 0 448 432" enable-background="new 0 0 448 432" xml:space="preserve">
<path fill="#000000" opacity="1.000000" stroke="none" 
	d="
M92.468658,433.000000 
	C89.780914,431.197144 86.947975,431.475189 84.402229,430.822205 
	C68.993996,426.869873 59.851032,416.120544 55.115589,401.899872 
	C47.621078,379.393524 45.580246,356.193329 48.284382,332.492279 
	C50.298279,314.841034 57.228535,299.592621 68.223640,285.925323 
	C70.457878,283.148102 71.434761,282.155701 74.704697,280.312500 
	C75.156761,282.941681 73.520172,284.810699 72.638733,286.822845 
	C68.830902,295.515259 64.695404,304.068970 61.064831,312.832916 
	C57.200687,322.160645 59.591988,326.865051 69.241310,329.793304 
	C79.844734,333.011078 90.749313,331.334595 101.523956,331.519012 
	C109.834099,331.661224 118.154259,331.265381 126.468773,331.060577 
	C127.896484,331.025391 129.493530,331.461700 130.840149,329.861816 
	C128.996140,325.991028 125.723595,323.103088 123.154388,319.725250 
	C104.298424,294.934570 85.636818,269.984375 65.237473,246.417648 
	C58.830299,239.015640 60.418922,238.438232 52.371548,245.318192 
	C47.271812,249.678101 41.813820,252.877167 34.810776,252.321732 
	C33.820320,252.243179 32.705402,252.308456 31.873220,251.874969 
	C20.531332,245.966934 10.972223,238.142090 6.404953,225.771484 
	C4.334892,220.164673 6.162006,214.609863 10.316062,210.567001 
	C30.014904,191.395416 50.073795,172.598129 71.869080,155.786163 
	C78.759399,150.471252 86.034683,150.628799 92.937691,156.370102 
	C99.467926,161.801346 105.431969,167.916809 110.026001,175.158371 
	C114.853699,182.768311 114.270599,188.534531 107.898972,194.933990 
	C103.085091,199.768906 98.081131,204.423889 93.003113,208.982208 
	C90.794594,210.964722 90.023041,212.530258 92.089218,215.216003 
	C106.195389,233.552139 121.124435,251.202744 136.326141,269.170044 
	C140.053986,264.594299 143.317261,259.992981 148.675507,257.566010 
	C151.911575,256.100250 155.184738,254.963257 158.691040,254.735336 
	C183.999405,253.090195 209.312027,254.757156 234.619766,254.898911 
	C248.662415,254.977570 254.957016,258.214417 265.333588,267.434875 
	C269.986877,264.914154 273.428040,260.767120 277.479248,257.408203 
	C286.975067,249.535049 296.487244,241.696899 307.321777,235.681686 
	C312.719910,232.684692 318.227509,229.870453 324.518280,229.269547 
	C327.694000,228.966202 330.021637,227.404205 332.206970,225.157654 
	C343.126984,213.931732 354.183807,202.839005 365.126282,191.634766 
	C372.082977,184.511612 378.520844,183.181320 387.676788,187.008575 
	C397.149872,190.968399 404.408936,197.866425 411.407471,205.001556 
	C424.111908,217.953964 434.565979,232.499939 441.342560,249.463715 
	C442.447845,252.230576 443.414337,255.119827 443.925446,258.043335 
	C445.029114,264.356018 444.188843,269.609222 438.728790,274.556702 
	C427.135651,285.061554 416.410492,296.524750 405.342224,307.607758 
	C404.181702,308.769867 402.601013,309.974670 403.869446,311.856232 
	C408.659973,318.962311 409.286316,327.240784 409.872345,335.286896 
	C411.512329,357.804443 411.004120,380.220978 403.243225,401.823181 
	C397.254517,418.492615 386.049255,429.243011 368.062012,432.019592 
	C367.244659,432.145752 366.450073,432.418945 365.322449,432.811829 
	C274.312439,433.000000 183.624878,433.000000 92.468658,433.000000 
M187.499725,340.313446 
	C159.338608,340.219086 131.161835,340.653717 103.022568,339.821259 
	C87.492447,339.361786 71.160980,342.741028 57.007694,333.112518 
	C55.468021,334.386749 55.442314,335.898132 55.395054,337.384583 
	C54.832973,355.064972 54.983646,372.781372 59.577099,389.950775 
	C65.288589,411.299194 74.120483,424.939941 102.789879,424.757660 
	C166.603485,424.351929 230.421219,424.931854 294.235809,424.155975 
	C314.396027,423.910858 334.561340,424.108948 354.723938,424.018219 
	C359.707214,423.995819 364.743927,424.202606 369.645782,423.085083 
	C383.397400,419.949982 391.178223,410.529663 395.580414,397.829712 
	C400.770691,382.856110 402.004486,367.289459 401.884064,351.582458 
	C401.850464,347.197601 402.264404,342.730133 401.447327,339.632294 
	C330.032654,340.881927 259.261902,340.108612 187.499725,340.313446 
M358.014160,330.546265 
	C369.343445,330.587036 380.673004,330.690765 392.001831,330.637177 
	C396.435333,330.616211 399.618896,327.752075 399.518829,324.287109 
	C399.398956,320.136475 395.286255,314.901672 391.892487,314.783875 
	C383.876709,314.505646 376.572754,312.126556 369.770416,307.893433 
	C356.088684,299.379242 345.433960,287.823517 336.215149,274.812073 
	C330.765228,267.120056 326.802551,258.764832 325.005035,249.424652 
	C324.323700,245.884384 325.273499,242.170609 324.027802,238.768112 
	C323.388428,238.727493 323.030609,238.610626 322.734528,238.699478 
	C310.288483,242.435028 300.459930,250.448578 290.614349,258.420319 
	C289.288239,259.493988 289.420929,260.947723 289.740875,262.539948 
	C293.073273,279.121704 299.503754,294.287903 310.018982,307.640564 
	C311.034241,308.929749 312.636932,310.055237 312.401764,313.017212 
	C295.960083,301.041534 286.970276,284.999878 281.312378,266.341370 
	C279.890656,267.408661 279.070557,267.944458 278.341187,268.583740 
	C266.057892,279.350281 254.542618,290.912415 243.116348,302.568878 
	C237.037537,308.770111 231.161819,315.116425 227.226868,322.977661 
	C223.802444,329.819031 224.292587,330.694336 231.717926,330.697113 
	C248.379318,330.703369 265.040833,330.694824 281.702087,330.636017 
	C306.840149,330.547333 331.976654,329.615814 358.014160,330.546265 
M233.839157,299.348694 
	C240.543564,292.629944 247.233383,285.896545 253.957260,279.197327 
	C258.871765,274.300873 258.615051,271.747650 252.555191,268.155731 
	C246.646133,264.653259 239.908997,263.604370 233.328003,263.512115 
	C209.179504,263.173462 185.023071,263.268372 160.870804,263.405640 
	C153.054626,263.450104 146.614716,268.323212 144.331009,274.999725 
	C143.634323,277.036530 143.719101,278.634430 145.124359,280.505585 
	C156.531235,295.694122 167.413803,311.245026 176.664871,327.869324 
	C177.763077,329.842834 179.131287,330.817078 181.400131,330.802002 
	C191.561356,330.734528 201.723160,330.700745 211.884430,330.740265 
	C214.212158,330.749298 215.563065,329.983246 216.183121,327.594177 
	C219.037994,316.594482 225.877808,308.024048 233.839157,299.348694 
M347.815155,275.696075 
	C352.204468,281.380310 357.073700,286.626556 362.432312,291.399780 
	C369.192657,297.421600 376.373230,302.828003 385.347504,305.118713 
	C389.765320,306.246368 394.018921,306.803741 397.809326,302.852173 
	C406.104584,294.204071 414.692505,285.836975 423.134064,277.328461 
	C424.018616,276.436859 425.327423,275.675140 424.814423,273.819824 
	C415.674377,269.824890 408.503693,262.832214 401.080383,256.478027 
	C398.151550,258.368286 395.722565,260.137207 393.114471,261.583191 
	C383.486481,266.921265 374.518219,266.420837 366.976959,260.264191 
	C358.307678,253.186584 354.912109,242.601669 358.142853,232.594086 
	C359.817535,227.406387 362.926544,223.085083 366.675232,219.239716 
	C368.706238,217.156357 369.145691,215.158264 367.770996,212.526306 
	C366.645935,210.372223 365.921082,208.009109 364.996460,205.682465 
	C363.140076,206.171890 362.102539,207.227951 361.058929,208.296310 
	C353.843414,215.683014 346.973785,223.458313 339.289093,230.320419 
	C332.823212,236.094177 332.309906,242.512070 334.190399,250.142212 
	C336.523254,259.608124 341.721252,267.466797 347.815155,275.696075 
M96.428070,235.052444 
	C91.972534,229.558548 87.517006,224.064651 82.869003,218.333420 
	C78.295792,222.381866 74.461311,226.088150 70.293190,229.370804 
	C66.746437,232.164093 66.750641,234.400085 69.658699,237.829697 
	C83.121254,253.706573 96.454285,269.700684 108.988213,286.330444 
	C119.012703,299.630737 128.786453,313.123840 139.723373,325.707367 
	C141.437622,327.679718 142.786942,330.506134 145.676971,330.733582 
	C152.753021,331.290344 159.847153,331.182678 167.826675,330.436707 
	C163.634644,322.256104 158.943237,315.448792 154.407944,308.558014 
	C137.319580,282.594727 116.124275,259.867401 96.428070,235.052444 
M388.310913,197.143417 
	C385.864319,196.122330 383.481445,194.891571 380.957581,194.124832 
	C376.060822,192.637192 373.161255,194.912872 373.372223,200.015442 
	C373.577301,204.975266 375.790985,209.317291 378.188324,213.491058 
	C386.211151,227.458755 397.049622,239.175842 408.251556,250.575867 
	C413.156158,255.567169 418.324158,260.314941 424.591095,263.545990 
	C427.683075,265.140137 431.299194,268.514191 434.551605,265.509857 
	C437.584137,262.708679 435.370422,258.546875 434.058777,255.233704 
	C424.694397,231.579758 409.478577,212.457764 388.310913,197.143417 
M72.761299,186.230667 
	C79.468758,180.638718 86.176216,175.046768 92.803452,169.521698 
	C86.439705,160.177628 81.912384,159.246796 74.085510,165.374405 
	C55.341022,180.049408 38.201675,196.546616 20.739712,212.672668 
	C18.803530,214.460739 16.961327,216.484146 15.584069,218.712692 
	C13.499195,222.086227 15.332955,227.293091 19.351032,230.491638 
	C23.002481,233.398346 24.358658,229.544418 26.119612,227.915359 
	C41.254616,213.913788 56.530380,200.073624 72.761299,186.230667 
M64.310051,222.799911 
	C75.661003,212.502563 87.027969,202.222763 98.344612,191.887848 
	C99.934410,190.435928 101.490692,188.858170 102.689049,187.086121 
	C104.884270,183.839966 103.569878,179.078674 99.733704,176.071411 
	C96.309685,173.387268 95.039246,177.114746 93.390984,178.637833 
	C75.889809,194.809982 57.920448,210.436172 39.568218,225.634293 
	C35.160828,229.284210 30.250843,232.437408 26.509800,236.807632 
	C33.597469,245.208374 38.091293,245.658630 45.707829,239.047226 
	C51.746437,233.805527 57.747158,228.520187 64.310051,222.799911 
M388.756683,242.721207 
	C383.408569,236.664032 378.422943,230.299225 373.534241,223.493958 
	C367.185669,229.601639 363.491882,236.098755 365.717194,244.109390 
	C367.586578,250.838562 372.159637,256.119965 379.421600,257.241425 
	C385.565338,258.190155 390.928406,255.594788 395.678009,250.906250 
	C393.277466,248.044662 391.259827,245.639465 388.756683,242.721207 
z"/>
<path fill="#000000" opacity="1.000000" stroke="none" 
	d="
M324.531342,1.000000 
	C345.884308,5.553168 356.870300,22.881023 370.752686,36.467506 
	C371.344360,37.046551 371.735840,37.839348 372.353180,38.381588 
	C385.216705,49.679890 386.166290,63.989590 383.042023,79.503365 
	C377.058929,109.212830 368.756836,138.294449 359.658112,167.166534 
	C359.309509,168.272705 359.478668,170.010406 356.957611,169.945221 
	C358.221832,162.737900 359.395294,155.602432 360.733887,148.498093 
	C365.224030,124.666817 369.837769,100.858589 374.242859,77.011742 
	C375.085144,72.452133 375.518311,67.760521 375.567749,63.123707 
	C375.648407,55.559658 373.229065,53.352043 365.659302,53.348248 
	C274.014435,53.302307 182.369537,53.263691 90.724655,53.230988 
	C83.635162,53.228458 81.482262,55.244976 81.375977,62.401867 
	C81.212288,73.423759 83.295998,84.234306 84.722717,95.104828 
	C86.257454,106.798355 87.768585,118.495079 89.237495,130.197006 
	C89.354309,131.127563 89.061859,132.109497 88.953819,133.121796 
	C86.982033,132.729202 87.025078,131.255920 86.718765,130.018387 
	C82.088371,111.311050 77.257790,92.671021 74.017685,73.623444 
	C71.988548,61.694794 73.519066,51.586376 81.622169,42.052841 
	C90.713379,31.356777 100.603264,21.537119 110.682991,11.844758 
	C116.520370,6.231714 123.628822,3.196393 131.672318,1.155562 
	C196.020889,1.000000 260.041779,1.000000 324.531342,1.000000 
M91.228355,43.274872 
	C92.981476,44.388233 94.972710,44.002110 96.827278,43.964298 
	C152.805710,42.823204 208.774918,45.456165 264.761322,44.183525 
	C296.408325,43.464146 328.080231,43.850052 359.740631,43.684380 
	C361.770966,43.673756 363.992249,44.278610 366.125122,42.687538 
	C365.359192,41.554039 364.806763,40.543381 364.075836,39.684685 
	C356.712860,31.034567 348.359619,23.374002 339.920319,15.818254 
	C333.944916,10.468461 326.691132,8.272587 318.773834,8.219612 
	C258.453369,7.816002 198.132126,7.713414 137.814224,8.435980 
	C130.758179,8.520506 123.956459,10.717958 118.439957,15.483735 
	C108.727081,23.874800 99.336174,32.606510 91.228355,43.274872 
z"/>
<path fill="#000000" opacity="1.000000" stroke="none" 
	d="
M123.288269,93.564804 
	C128.790588,77.037247 138.348831,71.701881 154.819412,75.389229 
	C166.684769,78.045593 177.314972,83.580696 187.816162,89.340820 
	C209.558472,101.266930 232.329590,110.475975 256.726471,115.105293 
	C270.957489,117.805634 285.256287,120.059273 298.674255,125.781639 
	C309.455719,130.379639 319.974182,135.534363 327.036987,145.448059 
	C336.259521,158.393295 331.913635,175.650085 318.112396,180.384720 
	C312.046387,182.465744 305.564941,181.885330 299.338318,180.710861 
	C284.612396,177.933258 271.517365,170.712143 257.857605,165.040527 
	C252.478165,162.806946 247.113876,160.570892 241.493988,158.955780 
	C233.333038,156.610367 226.747635,158.731171 221.636459,165.466232 
	C218.799240,169.204865 216.015930,172.984421 212.451675,177.759140 
	C213.643753,160.189819 224.200897,145.403381 243.181229,150.705521 
	C256.566528,154.444702 268.914673,160.693100 281.772980,165.699341 
	C290.302246,169.020111 298.754791,172.594666 308.124390,172.836349 
	C313.766022,172.981888 318.811584,171.873947 321.704834,166.382950 
	C324.784393,160.538513 323.508636,155.058289 319.817841,150.015381 
	C315.485657,144.096115 309.480438,140.225632 303.130585,136.777435 
	C288.414093,128.785889 272.223328,125.746964 256.074463,122.459900 
	C229.635529,117.078323 204.652145,107.675743 180.821594,95.054398 
	C172.150055,90.461693 163.271988,86.259331 153.586151,84.071358 
	C140.992844,81.226624 135.217361,84.261024 131.291656,96.642281 
	C127.511887,108.563271 126.212479,121.003601 124.271263,133.305588 
	C123.645226,137.272934 123.525055,141.423141 121.120110,145.041428 
	C118.148621,127.856598 118.590714,110.827789 123.288269,93.564804 
z"/>
<path fill="#000000" opacity="1.000000" stroke="none" 
	d="
M277.974609,206.720856 
	C293.376862,207.946030 308.422760,207.359695 323.249329,210.192169 
	C254.196899,215.637573 185.173538,215.830048 116.040405,211.198914 
	C116.289604,208.661911 117.650833,208.864700 118.740204,208.795578 
	C165.128922,205.852737 211.565063,205.033478 258.026245,206.089996 
	C264.502441,206.237259 270.992035,206.600388 277.974609,206.720856 
z"/>
<path fill="#000000" opacity="1.000000" stroke="none" 
	d="
M320.968689,80.155762 
	C305.875366,78.958725 291.119873,79.170647 275.340637,76.571190 
	C279.441010,73.668221 283.056549,74.461449 286.223083,74.077705 
	C299.107697,72.516205 312.055237,71.509338 325.062469,71.713951 
	C328.934265,71.774857 332.667450,72.468170 336.288391,73.843605 
	C346.222321,77.617081 350.359344,84.945595 348.387787,95.428238 
	C346.876556,103.463257 344.211456,111.163170 341.474457,118.839127 
	C341.151245,119.745537 341.088104,120.869987 338.830109,120.997276 
	C339.220612,114.459290 339.167450,107.930771 340.079407,101.539970 
	C342.372772,85.468216 338.441650,80.766159 320.968689,80.155762 
z"/>
<path fill="#000000" opacity="1.000000" stroke="none" 
	d="
M155.123199,156.590637 
	C156.143433,144.626648 157.630173,133.125000 160.633255,121.865089 
	C160.932129,120.744514 161.214432,119.614288 161.604446,118.524330 
	C162.467712,116.111740 163.992813,114.356163 166.778732,114.918205 
	C169.828323,115.533447 170.774887,117.911339 170.141647,120.626923 
	C168.974152,125.633469 167.756317,130.661072 166.054672,135.502487 
	C163.578278,142.548157 160.703674,149.456696 157.870926,156.371292 
	C157.436142,157.432602 156.782516,160.505432 155.123199,156.590637 
z"/>
<path fill="#000000" opacity="1.000000" stroke="none" 
	d="
M141.066315,150.480255 
	C138.763474,153.232666 138.676102,151.261093 138.690201,149.661087 
	C138.779190,139.550003 138.039825,129.418671 139.317734,119.335426 
	C139.671204,116.546593 140.229630,113.784065 140.601517,110.997131 
	C140.998276,108.023796 142.607468,106.381950 145.607239,106.782707 
	C148.718353,107.198349 149.556061,109.553764 149.273346,112.307022 
	C148.426651,120.552933 146.790649,128.664581 144.799530,136.701233 
	C143.684494,141.201782 142.393829,145.658813 141.066315,150.480255 
z"/>
<path fill="#000000" opacity="1.000000" stroke="none" 
	d="
M191.672211,166.554169 
	C193.249649,157.133087 195.430695,148.265930 198.861908,139.745407 
	C199.478973,138.213089 200.171112,136.642761 201.163483,135.346359 
	C202.533813,133.556198 204.563843,133.177383 206.547440,134.218170 
	C208.299530,135.137466 209.300735,136.779999 208.707703,138.808655 
	C205.316971,150.407654 200.151474,161.149292 192.929886,170.866852 
	C192.792984,171.051086 192.318604,170.984543 191.914108,171.048935 
	C190.409607,169.788757 192.041733,168.279526 191.672211,166.554169 
z"/>
<path fill="#000000" opacity="1.000000" stroke="none" 
	d="
M182.597183,148.511963 
	C180.078644,154.266998 177.765457,159.703003 173.539627,165.664230 
	C172.767273,159.959396 174.161896,155.903687 174.790604,151.836273 
	C176.010513,143.944107 177.829834,136.167923 180.767334,128.704926 
	C181.763077,126.175156 183.345062,124.183945 186.402893,125.193657 
	C189.391571,126.180550 189.707184,128.693329 189.036774,131.355652 
	C187.568207,137.187546 185.304459,142.732468 182.597183,148.511963 
z"/>
<path fill="#000000" opacity="1.000000" stroke="none" 
	d="
M213.058960,398.749146 
	C240.893326,398.733093 268.295227,397.443665 295.417877,402.743134 
	C257.308380,407.985870 219.211929,408.294739 181.097748,402.824402 
	C191.430847,399.781403 202.032761,399.555695 213.058960,398.749146 
z"/>
<path fill="#000000" opacity="1.000000" stroke="none" 
	d="
M78.660843,370.326416 
	C78.620636,367.511963 79.290672,365.329071 80.229385,363.139893 
	C82.319077,363.575500 81.972298,365.303406 82.319084,366.625183 
	C83.707062,371.915497 84.910660,377.263153 86.528557,382.482269 
	C89.637932,392.512787 96.869080,397.516235 107.066734,398.677521 
	C112.842415,399.335266 118.616272,400.012543 124.382561,400.746887 
	C125.791397,400.926270 127.438774,400.703705 128.699890,402.984192 
	C115.914825,405.555695 103.343185,408.154449 91.240135,402.145660 
	C82.578766,397.845581 79.493774,389.456207 78.710770,380.248535 
	C78.444183,377.113678 78.661476,373.937653 78.660843,370.326416 
z"/>
<path fill="#000000" opacity="1.000000" stroke="none" 
	d="
M369.653625,393.796448 
	C370.247498,379.988861 371.705322,366.814850 377.032562,353.699188 
	C383.548553,364.409668 379.585663,391.208466 370.677124,400.267914 
	C368.882019,398.461517 369.954620,396.212952 369.653625,393.796448 
z"/>
<path fill="#000000" opacity="1.000000" stroke="none" 
	d="
M208.348145,285.538879 
	C195.606155,287.160370 183.523987,286.154480 171.349518,283.023254 
	C176.164520,276.606140 216.801987,276.806702 223.343735,282.664001 
	C218.568924,284.738068 213.676331,285.070709 208.348145,285.538879 
z"/>
</svg>