<?xml version="1.0"?>
<svg width="500" height="500" xmlns="http://www.w3.org/2000/svg" xmlns:svg="http://www.w3.org/2000/svg" enable-background="new 0 0 448 432" version="1.1" xml:space="preserve">

 <g class="layer">
  <title>Layer 1</title>
  <g id="svg_14" transform="translate(0, -73.23) translate(79.505) translate(32.599, 459) scale(0.625685) translate(-32.599, -459) translate(0, 4) matrix(1, 0, 0, 1, -0.945, -8)">
   <path d="m121.47,462c-2.69,-1.8 -5.52,-1.52 -8.07,-2.18c-15.41,-3.95 -24.55,-14.7 -29.28,-28.92c-7.5,-22.51 -9.54,-45.71 -6.84,-69.41c2.02,-17.65 8.95,-32.9 19.94,-46.56c2.24,-2.78 3.21,-3.77 6.48,-5.62c0.46,2.63 -1.18,4.5 -2.06,6.51c-3.81,8.7 -7.94,17.25 -11.58,26.01c-3.86,9.33 -1.47,14.04 8.18,16.96c10.6,3.22 21.51,1.54 32.28,1.73c8.31,0.14 16.63,-0.25 24.95,-0.46c1.43,-0.03 3.02,0.4 4.37,-1.2c-1.84,-3.87 -5.12,-6.76 -7.69,-10.13c-18.85,-24.8 -37.51,-49.75 -57.91,-73.31c-6.41,-7.4 -4.82,-7.98 -12.87,-1.1c-5.1,4.36 -10.56,7.56 -17.56,7c-0.99,-0.08 -2.1,-0.01 -2.94,-0.45c-11.34,-5.9 -20.9,-13.73 -25.47,-26.1c-2.07,-5.61 -0.24,-11.16 3.92,-15.2c19.69,-19.17 39.75,-37.97 61.55,-54.78c6.89,-5.32 14.16,-5.16 21.07,0.58c6.53,5.43 12.49,11.55 17.09,18.79c4.82,7.61 4.24,13.37 -2.13,19.77c-4.81,4.84 -9.82,9.49 -14.9,14.05c-2.21,1.98 -2.98,3.55 -0.91,6.24c14.11,18.33 29.03,35.98 44.24,53.95c3.72,-4.58 6.99,-9.18 12.35,-11.6c3.23,-1.47 6.5,-2.61 10.01,-2.83c25.31,-1.65 50.62,0.02 75.93,0.16c14.04,0.08 20.34,3.31 30.71,12.53c4.66,-2.52 8.1,-6.66 12.15,-10.02c9.5,-7.87 19.01,-15.71 29.84,-21.73c5.4,-3 10.91,-5.81 17.2,-6.41c3.17,-0.3 5.5,-1.87 7.69,-4.11c10.92,-11.23 21.97,-22.32 32.92,-33.53c6.95,-7.12 13.39,-8.45 22.55,-4.62c9.47,3.96 16.73,10.86 23.73,17.99c12.7,12.95 23.16,27.5 29.93,44.46c1.11,2.77 2.07,5.66 2.59,8.58c1.1,6.32 0.26,11.57 -5.2,16.52c-11.59,10.5 -22.32,21.96 -33.39,33.05c-1.16,1.16 -2.74,2.36 -1.47,4.25c4.79,7.1 5.42,15.38 6,23.43c1.64,22.51 1.13,44.93 -6.63,66.53c-5.99,16.67 -17.19,27.42 -35.18,30.2c-0.82,0.13 -1.61,0.4 -2.74,0.79c-91.01,0.19 -181.7,0.19 -272.85,0.19m95.03,-92.69c-28.16,-0.09 -56.34,0.34 -84.48,-0.49c-15.53,-0.46 -31.86,2.92 -46.01,-6.71c-1.54,1.28 -1.57,2.79 -1.61,4.27c-0.57,17.68 -0.42,35.4 4.18,52.57c5.71,21.35 14.54,34.99 43.21,34.81c63.81,-0.41 127.63,0.17 191.45,-0.6c20.16,-0.25 40.32,-0.05 60.48,-0.14c4.99,-0.02 10.02,0.18 14.93,-0.93c13.75,-3.14 21.53,-12.56 25.93,-25.26c5.19,-14.97 6.42,-30.54 6.3,-46.25c-0.03,-4.38 0.38,-8.85 -0.43,-11.95c-71.42,1.25 -142.19,0.48 -213.95,0.68m170.51,-9.76c11.33,0.04 22.66,0.14 33.99,0.09c4.44,-0.02 7.62,-2.89 7.52,-6.35c-0.12,-4.15 -4.23,-9.39 -7.63,-9.51c-8.01,-0.27 -15.32,-2.65 -22.12,-6.89c-13.68,-8.51 -24.34,-20.07 -33.55,-33.08c-5.45,-7.69 -9.42,-16.05 -11.21,-25.39c-0.69,-3.54 0.26,-7.25 -0.98,-10.65c-0.64,-0.04 -1,-0.16 -1.3,-0.07c-12.44,3.74 -22.27,11.75 -32.12,19.72c-1.32,1.07 -1.19,2.53 -0.87,4.12c3.33,16.58 9.76,31.75 20.28,45.1c1.01,1.29 2.62,2.42 2.38,5.38c-16.44,-11.98 -25.43,-28.02 -31.09,-46.68c-1.42,1.07 -2.24,1.6 -2.97,2.24c-12.28,10.77 -23.8,22.33 -35.22,33.99c-6.08,6.2 -11.96,12.55 -15.89,20.41c-3.43,6.84 -2.94,7.71 4.49,7.72c16.66,0 33.32,-0.01 49.98,-0.06c25.14,-0.09 50.28,-1.02 76.31,-0.09m-124.17,-31.2c6.7,-6.72 13.39,-13.45 20.12,-20.15c4.91,-4.9 4.66,-7.45 -1.4,-11.04c-5.91,-3.51 -12.65,-4.56 -19.23,-4.65c-24.15,-0.34 -48.31,-0.24 -72.46,-0.1c-7.82,0.04 -14.26,4.91 -16.54,11.59c-0.7,2.04 -0.61,3.63 0.79,5.51c11.41,15.18 22.29,30.74 31.54,47.36c1.1,1.97 2.47,2.95 4.74,2.93c10.16,-0.07 20.32,-0.1 30.48,-0.06c2.33,0.01 3.68,-0.76 4.3,-3.15c2.86,-11 9.7,-19.57 17.66,-28.24m113.98,-23.65c4.38,5.68 9.25,10.93 14.61,15.7c6.76,6.02 13.94,11.43 22.92,13.72c4.42,1.13 8.67,1.68 12.46,-2.27c8.29,-8.65 16.88,-17.01 25.32,-25.52c0.89,-0.89 2.2,-1.65 1.68,-3.51c-9.14,-4 -16.31,-10.99 -23.73,-17.34c-2.93,1.89 -5.36,3.66 -7.97,5.1c-9.62,5.34 -18.59,4.84 -26.13,-1.32c-8.67,-7.07 -12.07,-17.66 -8.84,-27.67c1.68,-5.18 4.79,-9.5 8.54,-13.35c2.03,-2.08 2.47,-4.08 1.09,-6.71c-1.12,-2.16 -1.85,-4.52 -2.77,-6.85c-1.86,0.49 -2.9,1.55 -3.94,2.62c-7.22,7.38 -14.09,15.16 -21.77,22.02c-6.47,5.77 -6.98,12.19 -5.1,19.82c2.33,9.47 7.53,17.33 13.63,25.56m-251.39,-40.65c-4.46,-5.49 -8.91,-10.99 -13.56,-16.72c-4.57,4.05 -8.41,7.76 -12.58,11.04c-3.54,2.79 -3.54,5.03 -0.63,8.46c13.46,15.88 26.79,31.87 39.33,48.5c10.02,13.3 19.8,26.79 30.73,39.38c1.72,1.97 3.07,4.8 5.96,5.02c7.07,0.56 14.17,0.45 22.15,-0.29c-4.2,-8.18 -8.89,-14.99 -13.42,-21.88c-17.09,-25.97 -38.29,-48.69 -57.98,-73.51m291.88,-37.91c-2.45,-1.02 -4.83,-2.25 -7.35,-3.02c-4.9,-1.48 -7.8,0.79 -7.59,5.9c0.21,4.96 2.42,9.3 4.82,13.47c8.02,13.97 18.86,25.69 30.06,37.09c4.91,4.99 10.07,9.73 16.34,12.97c3.09,1.59 6.71,4.96 9.96,1.96c3.03,-2.8 0.82,-6.96 -0.49,-10.28c-9.37,-23.65 -24.58,-42.77 -45.75,-58.09m-315.55,-10.91c6.71,-5.59 13.42,-11.18 20.04,-16.71c-6.36,-9.34 -10.89,-10.27 -18.71,-4.15c-18.75,14.68 -35.89,31.18 -53.35,47.3c-1.94,1.79 -3.78,3.81 -5.16,6.04c-2.08,3.38 -0.25,8.58 3.77,11.78c3.65,2.91 5.01,-0.95 6.77,-2.57c15.13,-14.01 30.41,-27.85 46.64,-41.69m-8.45,36.57c11.35,-10.3 22.72,-20.58 34.03,-30.91c1.59,-1.45 3.15,-3.03 4.35,-4.8c2.19,-3.25 0.88,-8.01 -2.96,-11.02c-3.42,-2.68 -4.69,1.04 -6.34,2.57c-17.5,16.17 -35.47,31.8 -53.82,46.99c-4.41,3.65 -9.32,6.81 -13.06,11.18c7.09,8.4 11.58,8.85 19.2,2.24c6.04,-5.24 12.04,-10.53 18.6,-16.25m324.45,19.92c-5.35,-6.06 -10.34,-12.42 -15.23,-19.23c-6.34,6.11 -10.04,12.61 -7.81,20.62c1.87,6.73 6.44,12.01 13.7,13.13c6.15,0.95 11.51,-1.65 16.26,-6.33c-2.4,-2.87 -4.42,-5.27 -6.92,-8.19z" fill="#FFFFFF" id="svg_1" opacity="1"/>
   <path d="m353.53,30c21.35,4.55 32.34,21.88 46.22,35.47c0.59,0.58 0.99,1.37 1.6,1.91c12.87,11.3 13.82,25.61 10.69,41.12c-5.98,29.71 -14.28,58.79 -23.38,87.67c-0.35,1.1 -0.18,2.84 -2.7,2.78c1.26,-7.21 2.44,-14.35 3.77,-21.45c4.49,-23.83 9.11,-47.64 13.51,-71.49c0.85,-4.56 1.28,-9.25 1.33,-13.89c0.08,-7.56 -2.34,-9.77 -9.91,-9.77c-91.65,-0.05 -183.29,-0.09 -274.94,-0.12c-7.08,0 -9.24,2.01 -9.34,9.17c-0.17,11.02 1.92,21.83 3.34,32.7c1.54,11.7 3.05,23.4 4.52,35.1c0.11,0.93 -0.18,1.91 -0.29,2.92c-1.97,-0.39 -1.92,-1.86 -2.23,-3.1c-4.63,-18.71 -9.46,-37.35 -12.7,-56.4c-2.03,-11.93 -0.5,-22.03 7.6,-31.57c9.09,-10.69 18.98,-20.51 29.06,-30.21c5.84,-5.61 12.95,-8.64 20.99,-10.68c64.35,-0.16 128.37,-0.16 192.86,-0.16m-233.3,42.27c1.75,1.12 3.74,0.73 5.6,0.69c55.98,-1.14 111.94,1.5 167.93,0.22c31.65,-0.72 63.32,-0.33 94.98,-0.5c2.03,-0.01 4.25,0.6 6.39,-0.99c-0.77,-1.14 -1.32,-2.15 -2.05,-3.01c-7.37,-8.65 -15.72,-16.31 -24.16,-23.86c-5.98,-5.35 -13.23,-7.55 -21.15,-7.6c-60.32,-0.4 -120.64,-0.51 -180.96,0.22c-7.05,0.08 -13.85,2.28 -19.37,7.04c-9.71,8.39 -19.1,17.13 -27.21,27.79z" fill="#FFFFFF" id="svg_2" opacity="1"/>
   <path d="m152.29,122.56c5.5,-16.52 15.06,-21.86 31.53,-18.17c11.86,2.66 22.49,8.19 33,13.95c21.74,11.93 44.51,21.14 68.91,25.77c14.23,2.7 28.53,4.95 41.94,10.67c10.79,4.6 21.3,9.75 28.37,19.67c9.22,12.94 4.87,30.2 -8.93,34.93c-6.06,2.09 -12.55,1.51 -18.77,0.33c-14.73,-2.78 -27.82,-10 -41.48,-15.67c-5.38,-2.23 -10.75,-4.47 -16.37,-6.08c-8.16,-2.35 -14.74,-0.23 -19.85,6.51c-2.84,3.73 -5.62,7.51 -9.19,12.29c1.19,-17.57 11.75,-32.36 30.73,-27.05c13.39,3.73 25.73,9.98 38.59,14.99c8.53,3.32 16.98,6.89 26.35,7.14c5.65,0.14 10.69,-0.97 13.58,-6.46c3.08,-5.84 1.81,-11.32 -1.88,-16.36c-4.33,-5.92 -10.34,-9.79 -16.69,-13.24c-14.72,-7.99 -30.91,-11.03 -47.06,-14.32c-26.43,-5.38 -51.42,-14.78 -75.25,-27.41c-8.67,-4.59 -17.55,-8.79 -27.23,-10.98c-12.6,-2.84 -18.37,0.19 -22.3,12.57c-3.78,11.92 -5.08,24.36 -7.02,36.67c-0.62,3.96 -0.74,8.11 -3.15,11.73c-2.97,-17.18 -2.53,-34.21 2.17,-51.48z" fill="#FFFFFF" id="svg_3" opacity="1"/>
   <path d="m306.97,235.72c15.41,1.23 30.45,0.64 45.28,3.47c-69.05,5.45 -138.08,5.64 -207.21,1.01c0.25,-2.54 1.61,-2.34 2.7,-2.4c46.39,-2.95 92.83,-3.77 139.29,-2.71c6.47,0.15 12.96,0.51 19.94,0.63z" fill="#FFFFFF" id="svg_4" opacity="1"/>
   <path d="m349.97,109.16c-15.09,-1.2 -29.85,-0.99 -45.63,-3.59c4.1,-2.9 7.72,-2.11 10.88,-2.49c12.89,-1.56 25.84,-2.57 38.84,-2.37c3.87,0.06 7.61,0.76 11.23,2.13c9.93,3.78 14.07,11.11 12.1,21.59c-1.51,8.03 -4.18,15.73 -6.92,23.41c-0.32,0.91 -0.38,2.03 -2.64,2.16c0.39,-6.54 0.34,-13.07 1.25,-19.46c2.29,-16.07 -1.64,-20.77 -19.11,-21.38z" fill="#FFFFFF" id="svg_5" opacity="1"/>
   <path d="m184.12,185.59c1.02,-11.96 2.51,-23.46 5.51,-34.72c0.3,-1.13 0.58,-2.26 0.97,-3.35c0.87,-2.41 2.39,-4.16 5.18,-3.6c3.05,0.61 3.99,2.99 3.36,5.71c-1.17,5 -2.38,10.03 -4.09,14.87c-2.47,7.05 -5.35,13.96 -8.18,20.87c-0.43,1.06 -1.09,4.14 -2.75,0.22z" fill="#FFFFFF" id="svg_6" opacity="1"/>
   <path d="m170.07,179.48c-2.31,2.75 -2.39,0.78 -2.38,-0.82c0.09,-10.11 -0.65,-20.24 0.63,-30.32c0.35,-2.79 0.91,-5.56 1.28,-8.34c0.4,-2.98 2.01,-4.62 5.01,-4.22c3.11,0.42 3.95,2.77 3.66,5.53c-0.84,8.24 -2.48,16.35 -4.47,24.39c-1.12,4.5 -2.41,8.96 -3.73,13.78z" fill="#FFFFFF" id="svg_7" opacity="1"/>
   <path d="m220.67,195.55c1.58,-9.42 3.76,-18.28 7.19,-26.8c0.62,-1.54 1.31,-3.11 2.3,-4.4c1.37,-1.79 3.4,-2.17 5.39,-1.13c1.75,0.92 2.75,2.56 2.16,4.59c-3.39,11.6 -8.56,22.34 -15.78,32.06c-0.14,0.18 -0.61,0.11 -1.02,0.18c-1.5,-1.26 0.13,-2.77 -0.24,-4.5z" fill="#FFFFFF" id="svg_8" opacity="1"/>
   <path d="m211.6,177.51c-2.52,5.76 -4.83,11.19 -9.06,17.15c-0.77,-5.7 0.62,-9.76 1.25,-13.82c1.22,-7.9 3.04,-15.67 5.98,-23.14c0.99,-2.52 2.58,-4.52 5.63,-3.51c2.99,0.99 3.31,3.5 2.64,6.17c-1.47,5.83 -3.74,11.37 -6.44,17.15z" fill="#FFFFFF" id="svg_9" opacity="1"/>
   <path d="m242.06,427.75c27.83,-0.02 55.24,-1.31 82.36,3.99c-38.11,5.25 -76.21,5.55 -114.32,0.08c10.33,-3.04 20.93,-3.26 31.96,-4.07z" fill="#FFFFFF" id="svg_10" opacity="1"/>
   <path d="m107.66,399.33c-0.04,-2.82 0.63,-5 1.57,-7.19c2.09,0.44 1.74,2.16 2.09,3.49c1.39,5.29 2.59,10.63 4.21,15.85c3.11,10.03 10.34,15.04 20.54,16.2c5.77,0.66 11.55,1.33 17.31,2.07c1.41,0.18 3.06,-0.05 4.32,2.23c-12.79,2.58 -25.36,5.17 -37.46,-0.83c-8.66,-4.3 -11.75,-12.69 -12.53,-21.9c-0.27,-3.14 -0.05,-6.31 -0.05,-9.92z" fill="#FFFFFF" id="svg_11" opacity="1"/>
   <path d="m398.65,422.8c0.6,-13.81 2.06,-26.99 7.38,-40.1c6.52,10.71 2.56,37.51 -6.35,46.57c-1.8,-1.81 -0.73,-4.06 -1.03,-6.47z" fill="#FFFFFF" id="svg_12" opacity="1"/>
   <path d="m237.35,314.54c-12.74,1.62 -24.83,0.61 -37,-2.52c4.81,-6.41 45.45,-6.21 51.99,-0.36c-4.77,2.08 -9.66,2.41 -14.99,2.88z" fill="#FFFFFF" id="svg_13" opacity="1"/>
  </g>
 </g>
</svg>